<svg xmlns="http://www.w3.org/2000/svg" xml:space="preserve" width="399.547" height="64.22" viewBox="0 0 105.713 16.991"><path d="M14.598 9.492H13.49c-.275 0-.694.115-.929.255L4.926 14.24c-.235.14-.654.254-.93.254H0v1.999c0 .275.225.5.5.5h15.987c.275 0 .5-.225.5-.5v-1.999H12.99c-.275 0-.695-.114-.93-.254l-2.288-1.344c-.235-.14-.235-.37 0-.505l1.09-.64a.932.932 0 0 1 .859 0l.839.495c.235.14.654.255.93.255h3.497V9.502H14.597zM14.598 4.496H13.49c-.275 0-.694.115-.929.255L4.926 9.243c-.235.14-.654.254-.93.254H0v2.998h3.498c.274 0 .694-.115.928-.255L12.06 7.75c.235-.14.655-.255.93-.255h3.997V4.496h-.5zM16.487 0H.5C.225 0 0 .225 0 .5v1.998h3.997c.275 0 .694.115.93.255l2.287 1.344c.235.14.235.37 0 .504l-1.089.64a.932.932 0 0 1-.86 0l-.839-.495a2.155 2.155 0 0 0-.929-.255H0V7.49h3.498c.274 0 .694-.115.928-.255l7.634-4.491c.235-.14.655-.255.93-.255h3.997V.49a.5.5 0 0 0-.5-.49z"/><g aria-label="Stimulus Laravel" style="font-size:9.87782px;font-family:MonoLisa;-inkscape-font-specification:MonoLisa;stroke-width:.264585"><path d="M30.56 15.746q0 1.061-.901 1.727-.897.66-2.44.66-.893 0-1.559-.154-.66-.159-1.24-.4v-1.722h.203q.574.458 1.283.704.714.246 1.37.246.169 0 .444-.029t.448-.096q.213-.087.348-.217.14-.13.14-.386 0-.236-.203-.405-.198-.174-.584-.266-.405-.096-.858-.178-.449-.087-.844-.217-.907-.294-1.307-.796-.396-.506-.396-1.254 0-1.003.897-1.635.902-.637 2.315-.637.71 0 1.4.14.694.135 1.2.343v1.654h-.198q-.434-.347-1.066-.579-.627-.236-1.283-.236-.231 0-.463.034-.226.029-.439.115-.188.073-.323.222-.135.145-.135.333 0 .285.217.44.217.149.82.274.396.082.757.16.367.076.787.211.824.27 1.215.738.396.463.396 1.206zM35.196 17.955q-.28.072-.594.111-.313.043-.766.043-1.013 0-1.51-.41-.492-.41-.492-1.403v-2.532h-.714v-1.177h.714v-1.548h1.736v1.548h1.626v1.177H33.57v1.92q0 .284.005.496.005.212.077.381.068.169.237.27.173.097.501.097.135 0 .352-.058.222-.058.309-.106h.145zM37.969 18.003h-1.736v-5.416h1.736zm.048-6.188h-1.833v-1.317h1.833zM44.905 14.164v3.84h-1.746v-2.706q0-.396-.02-.67-.019-.28-.106-.454t-.265-.251q-.174-.082-.492-.082-.256 0-.497.106-.24.101-.434.217v3.84H39.61v-5.417h1.736v.598q.449-.352.859-.55.41-.198.906-.198.536 0 .946.242.41.236.641.699.521-.439 1.013-.69.492-.25.965-.25.878 0 1.33.525.46.526.46 1.515v3.525h-1.747v-2.705q0-.4-.02-.676-.014-.275-.1-.448-.082-.174-.26-.251-.18-.082-.502-.082-.218 0-.425.077-.207.072-.506.246zM55.458 18.003H53.72v-.598q-.482.367-.882.56-.4.188-.955.188-.897 0-1.384-.516-.483-.516-.483-1.524v-3.526h1.746v2.686q0 .41.024.685.03.27.126.449.091.178.275.26.188.082.52.082.222 0 .492-.082t.521-.24v-3.84h1.737zM58.834 18.003h-1.736v-7.505h1.736zM65.87 18.003h-1.735v-.598q-.483.367-.883.56-.4.188-.955.188-.897 0-1.384-.516-.483-.516-.483-1.524v-3.526h1.746v2.686q0 .41.024.685.03.27.126.449.092.178.275.26.188.082.52.082.223 0 .493-.082t.52-.24v-3.84h1.737zM72.218 16.286q0 .84-.752 1.356-.753.51-2.06.51-.723 0-1.312-.134-.588-.135-.945-.3v-1.427h.16q.13.092.298.203.174.106.487.231.27.111.613.193.342.077.733.077.511 0 .757-.11.246-.116.246-.338 0-.198-.144-.285-.145-.091-.55-.173-.193-.044-.526-.092-.328-.053-.598-.126-.738-.192-1.095-.598-.357-.41-.357-1.017 0-.782.738-1.298.743-.52 2.026-.52.608 0 1.162.125.56.12.873.26v1.37h-.15q-.385-.265-.882-.43-.492-.168-.998-.168-.42 0-.71.116-.284.115-.284.328 0 .193.13.294.13.101.613.202.265.054.569.107.309.048.617.125.685.178 1.013.564.328.381.328.955z" style="font-weight:700" transform="matrix(1 0 0 1 -5.09 -5.83)"/><path d="M81.532 18.003h-4.544v-7.181h.955v6.332h3.589zM86.6 18.003H85.7v-.574q-.12.082-.328.232-.203.145-.396.231-.226.111-.52.184-.295.077-.69.077-.728 0-1.235-.482-.506-.483-.506-1.23 0-.613.26-.99.265-.38.753-.597.491-.217 1.181-.294.69-.078 1.48-.116v-.14q0-.309-.11-.511-.106-.203-.309-.319-.193-.11-.463-.15-.27-.038-.564-.038-.357 0-.796.097-.439.091-.907.27h-.048v-.921q.265-.073.767-.16.502-.086.989-.086.569 0 .989.096.424.092.733.318.304.222.463.574.159.352.159.873zm-.901-1.326v-1.5q-.415.024-.98.072-.559.049-.887.14-.39.111-.631.347-.242.232-.242.642 0 .463.28.7.28.23.854.23.477 0 .873-.182.395-.189.733-.449zM91.709 13.605h-.049q-.202-.049-.395-.068-.188-.024-.449-.024-.42 0-.81.188-.39.183-.752.478v3.824h-.907v-5.387h.907v.796q.54-.434.95-.613.415-.183.844-.183.236 0 .342.014.106.01.319.044zM96.575 18.003h-.902v-.574q-.12.082-.328.232-.202.145-.395.231-.227.111-.521.184-.294.077-.69.077-.728 0-1.235-.482-.506-.483-.506-1.23 0-.613.26-.99.266-.38.753-.597.492-.217 1.181-.294.69-.078 1.481-.116v-.14q0-.309-.11-.511-.107-.203-.31-.319-.192-.11-.462-.15-.27-.038-.565-.038-.357 0-.796.097-.438.091-.906.27h-.049v-.921q.266-.073.767-.16.502-.086.99-.086.568 0 .988.096.424.092.733.318.304.222.463.574.16.352.16.873zm-.902-1.326v-1.5q-.415.024-.979.072-.56.049-.887.14-.391.111-.632.347-.241.232-.241.642 0 .463.28.7.28.23.853.23.478 0 .873-.182.396-.189.733-.449zM102.903 12.616l-2.18 5.387h-.912l-2.165-5.387h.984l1.669 4.288 1.654-4.288zM108.512 15.404h-3.969q0 .496.15.868.149.366.41.603.25.231.593.347.347.116.762.116.55 0 1.104-.217.56-.222.796-.434h.048v.988q-.458.193-.935.324-.478.13-1.004.13-1.34 0-2.093-.724-.752-.728-.752-2.064 0-1.322.718-2.098.724-.777 1.9-.777 1.09 0 1.68.637.592.637.592 1.809zm-.882-.695q-.005-.714-.362-1.104-.352-.391-1.076-.391-.728 0-1.162.43-.43.428-.487 1.065zM110.803 18.003h-.906v-7.505h.906z" style="font-family:&quot;Noto Sans Oriya&quot;;-inkscape-font-specification:&quot;Noto Sans Oriya&quot;" transform="matrix(1 0 0 1 -5.09 -5.83)"/></g></svg>