<?xml version="1.0" encoding="UTF-8" standalone="no"?>
<svg
   width="399.54672"
   height="64.219528"
   viewBox="0 0 105.7101 16.991498"
   version="1.1"
   id="svg34"
   sodipodi:docname="turbo-laravel-logo.svg"
   inkscape:version="1.2.1 (9c6d41e, 2022-07-14)"
   xml:space="preserve"
   xmlns:inkscape="http://www.inkscape.org/namespaces/inkscape"
   xmlns:sodipodi="http://sodipodi.sourceforge.net/DTD/sodipodi-0.dtd"
   xmlns="http://www.w3.org/2000/svg"
   xmlns:svg="http://www.w3.org/2000/svg"><sodipodi:namedview
     id="namedview36"
     pagecolor="#ffffff"
     bordercolor="#666666"
     borderopacity="1.0"
     inkscape:pageshadow="2"
     inkscape:pageopacity="0.0"
     inkscape:pagecheckerboard="0"
     showgrid="false"
     inkscape:zoom="1.8600052"
     inkscape:cx="103.22552"
     inkscape:cy="133.06414"
     inkscape:window-width="1390"
     inkscape:window-height="1027"
     inkscape:window-x="0"
     inkscape:window-y="25"
     inkscape:window-maximized="0"
     inkscape:current-layer="g32"
     inkscape:showpageshadow="2"
     inkscape:deskcolor="#d1d1d1"
     showguides="false" /><defs
     id="defs8"><filter
       id="a"
       width="1"
       height="1"
       x="0"
       y="0"
       color-interpolation-filters="sRGB"><feGaussianBlur
         id="feGaussianBlur2" /></filter><filter
       id="b"
       width="1"
       height="1"
       x="0"
       y="0"
       color-interpolation-filters="sRGB"><feGaussianBlur
         id="feGaussianBlur5" /></filter></defs><g
     transform="translate(-5.0914105,-5.8299194)"
     id="g32"><g
       id="g296"
       transform="matrix(0.0499603,0,0,0.0499603,5.079511,5.8099353)"><path
         d="m 292.4,190.4 h -22.2 c -5.5,0 -13.9,2.3 -18.6,5.1 L 98.8,285.4 c -4.7,2.8 -13.1,5.1 -18.6,5.1 H 48 10.2 0.2 v 40 c 0,5.5 4.5,10 10,10 h 320 c 5.5,0 10,-4.5 10,-10 v -40 h -10 -37.8 -32.2 c -5.5,0 -13.9,-2.3 -18.6,-5.1 l -45.8,-26.9 c -4.7,-2.8 -4.7,-7.4 0,-10.1 l 21.8,-12.8 c 4.7,-2.8 12.5,-2.8 17.2,0 l 16.8,9.9 c 4.7,2.8 13.1,5.1 18.6,5.1 h 22.2 37.8 10 v -60 h -10 -37.8 z"
         id="path290" /><path
         d="m 292.4,90.4 h -22.2 c -5.5,0 -13.9,2.3 -18.6,5.1 L 98.8,185.4 c -4.7,2.8 -13.1,5.1 -18.6,5.1 H 48 10.2 0.2 v 60 h 10 37.8 22.2 c 5.5,0 13.9,-2.3 18.6,-5.1 l 152.8,-89.9 c 4.7,-2.8 13.1,-5.1 18.6,-5.1 h 32.2 37.8 10 v -60 h -10 z"
         id="path292" /><path
         d="m 330.2,0.4 h -320 c -5.5,0 -10,4.5 -10,10 v 40 h 10 37.8 32.2 c 5.5,0 13.9,2.3 18.6,5.1 l 45.8,26.9 c 4.7,2.8 4.7,7.4 0,10.1 l -21.8,12.8 c -4.7,2.8 -12.5,2.8 -17.2,0 L 88.8,95.4 C 84.1,92.6 75.7,90.3 70.2,90.3 H 48 10.2 0.2 v 60 h 10 37.8 22.2 c 5.5,0 13.9,-2.3 18.6,-5.1 L 241.6,55.3 c 4.7,-2.8 13.1,-5.1 18.6,-5.1 h 32.2 37.8 10 v -40 c 0,-5.3 -4.5,-9.8 -10,-9.8 z"
         id="path294" /></g><g
       id="text451"
       style="font-size:3.17502px;stroke-width:0.264585" /><g
       aria-label="Stimulus Laravel"
       id="text455"
       style="font-size:9.87782px;font-family:MonoLisa;-inkscape-font-specification:MonoLisa;stroke-width:0.264585"><path
         d="m 30.560596,15.746088 q 0,1.061094 -0.90193,1.72669 -0.897107,0.660772 -2.440516,0.660772 -0.892284,0 -1.557879,-0.154341 -0.660772,-0.159164 -1.239551,-0.400322 v -1.721866 h 0.202573 q 0.573955,0.4582 1.282959,0.70418 0.713827,0.245981 1.369776,0.245981 0.16881,0 0.44373,-0.02894 0.27492,-0.02894 0.448553,-0.09646 0.212219,-0.08682 0.347267,-0.217042 0.139872,-0.130225 0.139872,-0.385852 0,-0.236335 -0.202573,-0.405145 -0.197749,-0.173634 -0.583601,-0.265274 -0.405145,-0.09646 -0.858522,-0.178456 -0.448553,-0.08682 -0.844052,-0.217042 -0.906753,-0.294213 -1.307074,-0.795821 -0.395499,-0.506431 -0.395499,-1.25402 0,-1.003216 0.897107,-1.635049 0.901929,-0.636656 2.315114,-0.636656 0.709003,0 1.398714,0.139871 0.694535,0.135048 1.200966,0.342444 v 1.654342 h -0.19775 q -0.434083,-0.347267 -1.065917,-0.578779 -0.62701,-0.236334 -1.282959,-0.236334 -0.231511,0 -0.463022,0.03376 -0.226689,0.02894 -0.438908,0.115756 -0.188103,0.07235 -0.323151,0.221865 -0.135048,0.144694 -0.135048,0.332797 0,0.284566 0.217042,0.438907 0.217042,0.149518 0.819936,0.27492 0.395499,0.08199 0.757235,0.159164 0.36656,0.07717 0.786174,0.212219 0.82476,0.270097 1.215435,0.737943 0.395499,0.463023 0.395499,1.205788 z"
         style="font-weight:bold"
         id="path511" /><path
         d="m 35.195647,17.955093 q -0.279743,0.07235 -0.593248,0.110933 -0.313505,0.04341 -0.766881,0.04341 -1.012863,0 -1.509647,-0.409968 -0.491962,-0.409968 -0.491962,-1.403538 v -2.532156 h -0.713827 v -1.17685 h 0.713827 V 11.03869 h 1.736335 v 1.548232 h 1.625403 v 1.17685 h -1.625403 v 1.919615 q 0,0.284566 0.0048,0.496785 0.0048,0.212219 0.07717,0.381029 0.06752,0.168811 0.236335,0.270097 0.173633,0.09646 0.501608,0.09646 0.135048,0 0.35209,-0.05788 0.221865,-0.05788 0.308682,-0.106109 h 0.144694 z"
         style="font-weight:bold"
         id="path513" /><path
         d="m 37.968961,18.003325 h -1.736336 v -5.416403 h 1.736336 z m 0.04823,-6.188107 h -1.832799 v -1.316722 h 1.832799 z"
         style="font-weight:bold"
         id="path515" /><path
         d="m 44.904657,14.164094 v 3.839231 h -1.745982 v -2.70579 q 0,-0.395499 -0.01929,-0.670419 -0.01929,-0.279742 -0.10611,-0.453376 -0.08682,-0.173634 -0.265273,-0.250804 -0.173634,-0.08199 -0.491962,-0.08199 -0.255627,0 -0.496785,0.10611 -0.241158,0.101286 -0.434084,0.217042 v 3.839231 h -1.736335 v -5.416403 h 1.736335 v 0.598071 q 0.448554,-0.35209 0.858522,-0.549839 0.409968,-0.19775 0.906753,-0.19775 0.53537,0 0.945338,0.241158 0.409968,0.236335 0.64148,0.699358 0.5209,-0.438908 1.012862,-0.689712 0.491962,-0.250804 0.964631,-0.250804 0.877814,0 1.33119,0.525724 0.4582,0.525724 0.4582,1.514471 v 3.525726 h -1.745982 v -2.70579 q 0,-0.400322 -0.01929,-0.675242 -0.01447,-0.274919 -0.101287,-0.448553 -0.08199,-0.173634 -0.26045,-0.250804 -0.178457,-0.08199 -0.501608,-0.08199 -0.217042,0 -0.424438,0.07717 -0.207395,0.07235 -0.506431,0.245981 z"
         style="font-weight:bold"
         id="path517" /><path
         d="m 55.457719,18.003325 h -1.736336 v -0.598072 q -0.482315,0.36656 -0.882637,0.559486 -0.400322,0.188103 -0.954984,0.188103 -0.897107,0 -1.384246,-0.516077 -0.482315,-0.516078 -0.482315,-1.524117 v -3.525726 h 1.745982 v 2.686497 q 0,0.409968 0.02412,0.684888 0.02894,0.270097 0.125402,0.448553 0.09164,0.178457 0.274919,0.260451 0.188103,0.08199 0.520901,0.08199 0.221865,0 0.491962,-0.08199 0.270096,-0.08199 0.5209,-0.241158 v -3.839231 h 1.736336 z"
         style="font-weight:bold"
         id="path519" /><path
         d="m 58.833928,18.003325 h -1.736335 v -7.504829 h 1.736335 z"
         style="font-weight:bold"
         id="path521" /><path
         d="m 65.870908,18.003325 h -1.736336 v -0.598072 q -0.482315,0.36656 -0.882637,0.559486 -0.400322,0.188103 -0.954984,0.188103 -0.897107,0 -1.384246,-0.516077 -0.482315,-0.516078 -0.482315,-1.524117 v -3.525726 h 1.745982 v 2.686497 q 0,0.409968 0.02412,0.684888 0.02894,0.270097 0.125402,0.448553 0.09164,0.178457 0.27492,0.260451 0.188103,0.08199 0.520901,0.08199 0.221865,0 0.491962,-0.08199 0.270096,-0.08199 0.5209,-0.241158 v -3.839231 h 1.736336 z"
         style="font-weight:bold"
         id="path523" /><path
         d="m 72.21818,16.286282 q 0,0.839228 -0.752412,1.355306 -0.752412,0.511254 -2.059487,0.511254 -0.723473,0 -1.311898,-0.135048 -0.588424,-0.135048 -0.945338,-0.299036 v -1.427653 h 0.159164 q 0.130225,0.09164 0.299036,0.202572 0.173633,0.10611 0.487138,0.231512 0.270097,0.110932 0.612541,0.192926 0.342444,0.07717 0.733119,0.07717 0.511255,0 0.757236,-0.110932 0.245981,-0.115756 0.245981,-0.337621 0,-0.197749 -0.144695,-0.284566 -0.144695,-0.09164 -0.54984,-0.173634 -0.192926,-0.04341 -0.525724,-0.09164 -0.327974,-0.05305 -0.598071,-0.125402 -0.737942,-0.192926 -1.094856,-0.598071 -0.356913,-0.409968 -0.356913,-1.017685 0,-0.781351 0.737943,-1.297429 0.742765,-0.520901 2.025724,-0.520901 0.607718,0 1.162381,0.125402 0.559485,0.120579 0.87299,0.260451 v 1.369776 h -0.149517 q -0.385853,-0.265274 -0.882638,-0.429261 -0.491961,-0.168811 -0.998393,-0.168811 -0.419614,0 -0.709003,0.115756 -0.284566,0.115756 -0.284566,0.327975 0,0.192926 0.130225,0.294212 0.130225,0.101286 0.61254,0.202573 0.265274,0.05305 0.569133,0.106109 0.308682,0.04823 0.617363,0.125402 0.684888,0.178457 1.012863,0.564309 0.327974,0.381029 0.327974,0.954985 z"
         style="font-weight:bold"
         id="path525" /><path
         d="m 81.53169,18.003325 h -4.543412 v -7.181677 h 0.954985 v 6.332801 h 3.588427 z"
         style="font-family:'Noto Sans Oriya';-inkscape-font-specification:'Noto Sans Oriya'"
         id="path527" /><path
         d="m 86.600827,18.003325 h -0.90193 v -0.573956 q -0.120579,0.08199 -0.327975,0.231512 -0.202572,0.144694 -0.395498,0.231511 -0.226689,0.110933 -0.520901,0.18328 -0.294212,0.07717 -0.689711,0.07717 -0.728296,0 -1.234728,-0.482315 -0.506431,-0.482316 -0.506431,-1.229904 0,-0.612541 0.260451,-0.988747 0.265273,-0.381029 0.752412,-0.598071 0.491961,-0.217042 1.181672,-0.294213 0.689711,-0.07717 1.480709,-0.115755 v -0.139872 q 0,-0.308682 -0.110933,-0.511254 -0.106109,-0.202573 -0.308682,-0.318328 -0.192926,-0.110933 -0.463022,-0.149518 -0.270097,-0.03859 -0.56431,-0.03859 -0.356913,0 -0.79582,0.09646 -0.438907,0.09164 -0.906753,0.270096 h -0.04823 v -0.921222 q 0.265274,-0.07235 0.766882,-0.159164 0.501608,-0.08682 0.988747,-0.08682 0.569132,0 0.988746,0.09646 0.424438,0.09164 0.73312,0.318328 0.303858,0.221865 0.463023,0.573956 0.159164,0.35209 0.159164,0.872991 z m -0.90193,-1.326368 v -1.500001 q -0.414792,0.02412 -0.979101,0.07235 -0.559485,0.04823 -0.88746,0.139872 -0.390675,0.110932 -0.631833,0.347267 -0.241158,0.231511 -0.241158,0.64148 0,0.463022 0.279743,0.699357 0.279743,0.231511 0.853698,0.231511 0.477493,0 0.872991,-0.18328 0.395499,-0.188103 0.73312,-0.448553 z"
         style="font-family:'Noto Sans Oriya';-inkscape-font-specification:'Noto Sans Oriya'"
         id="path529" /><path
         d="m 91.708547,13.604608 h -0.04823 q -0.202573,-0.04823 -0.395499,-0.06752 -0.188103,-0.02412 -0.448553,-0.02412 -0.419615,0 -0.81029,0.188103 -0.390676,0.18328 -0.752412,0.477492 v 3.824762 h -0.906753 v -5.387464 h 0.906753 v 0.795821 q 0.540193,-0.434084 0.950161,-0.612541 0.414791,-0.18328 0.844052,-0.18328 0.236335,0 0.342444,0.01447 0.106109,0.0096 0.318328,0.04341 z"
         style="font-family:'Noto Sans Oriya';-inkscape-font-specification:'Noto Sans Oriya'"
         id="path531" /><path
         d="m 96.575112,18.003325 h -0.90193 v -0.573956 q -0.120579,0.08199 -0.327975,0.231512 -0.202572,0.144694 -0.395498,0.231511 -0.226689,0.110933 -0.520901,0.18328 -0.294212,0.07717 -0.689711,0.07717 -0.728296,0 -1.234727,-0.482315 -0.506432,-0.482316 -0.506432,-1.229904 0,-0.612541 0.260451,-0.988747 0.265273,-0.381029 0.752412,-0.598071 0.491961,-0.217042 1.181673,-0.294213 0.689711,-0.07717 1.480708,-0.115755 v -0.139872 q 0,-0.308682 -0.110933,-0.511254 -0.106109,-0.202573 -0.308682,-0.318328 -0.192926,-0.110933 -0.463022,-0.149518 -0.270097,-0.03859 -0.564309,-0.03859 -0.356914,0 -0.795821,0.09646 -0.438907,0.09164 -0.906753,0.270096 h -0.04823 v -0.921222 q 0.265273,-0.07235 0.766881,-0.159164 0.501608,-0.08682 0.988747,-0.08682 0.569132,0 0.988746,0.09646 0.424438,0.09164 0.73312,0.318328 0.303859,0.221865 0.463023,0.573956 0.159164,0.35209 0.159164,0.872991 z m -0.90193,-1.326368 v -1.500001 q -0.414791,0.02412 -0.9791,0.07235 -0.559486,0.04823 -0.887461,0.139872 -0.390675,0.110932 -0.631833,0.347267 -0.241158,0.231511 -0.241158,0.64148 0,0.463022 0.279743,0.699357 0.279743,0.231511 0.853699,0.231511 0.477492,0 0.87299,-0.18328 0.395499,-0.188103 0.73312,-0.448553 z"
         style="font-family:'Noto Sans Oriya';-inkscape-font-specification:'Noto Sans Oriya'"
         id="path533" /><path
         d="m 102.90309,12.615861 -2.18007,5.387464 h -0.911573 l -2.165596,-5.387464 h 0.983924 l 1.668815,4.287784 1.65434,-4.287784 z"
         style="font-family:'Noto Sans Oriya';-inkscape-font-specification:'Noto Sans Oriya'"
         id="path535" /><path
         d="m 108.51241,15.403644 h -3.96945 q 0,0.496785 0.14952,0.868168 0.14951,0.36656 0.40996,0.602894 0.25081,0.231512 0.59325,0.347268 0.34727,0.115755 0.76206,0.115755 0.54984,0 1.1045,-0.217042 0.55949,-0.221865 0.79582,-0.434084 h 0.0482 v 0.988747 q -0.45819,0.192926 -0.93569,0.323151 -0.47749,0.130226 -1.00321,0.130226 -1.34084,0 -2.09325,-0.723474 -0.75241,-0.728296 -0.75241,-2.06431 0,-1.321544 0.71865,-2.098072 0.72347,-0.776528 1.90032,-0.776528 1.09003,0 1.67846,0.636657 0.59324,0.636656 0.59324,1.808683 z m -0.88263,-0.694534 q -0.005,-0.713827 -0.36174,-1.104502 -0.35209,-0.390676 -1.07556,-0.390676 -0.7283,0 -1.16238,0.429261 -0.42926,0.429261 -0.48714,1.065917 z"
         style="font-family:'Noto Sans Oriya';-inkscape-font-specification:'Noto Sans Oriya'"
         id="path537" /><path
         d="m 110.80341,18.003325 h -0.90675 v -7.504829 h 0.90675 z"
         style="font-family:'Noto Sans Oriya';-inkscape-font-specification:'Noto Sans Oriya'"
         id="path539" /></g></g></svg>
